<svg width="68" height="67" viewBox="0 0 68 67" fill="none" xmlns="http://www.w3.org/2000/svg">
<path d="M13.3979 3.38243C13.3979 1.85395 14.639 0.614868 16.1699 0.614868C17.7008 0.614868 18.9419 1.85395 18.9419 3.38243V10.9163C18.9419 12.4448 17.7008 13.6839 16.1699 13.6839C14.639 13.6839 13.3979 12.4448 13.3979 10.9163V3.38243Z" fill="white"/>
<path fill-rule="evenodd" clip-rule="evenodd" d="M20.1739 9.01757V10.9164C20.1739 13.1242 18.3812 14.9139 16.1699 14.9139C13.9586 14.9139 12.1659 13.1242 12.1659 10.9164V9.70868C9.55262 10.5616 7.14998 12.0205 5.16952 13.9978C1.85953 17.3025 0 21.7847 0 26.4582C0 31.1318 1.85953 35.614 5.16952 38.9187L32.9865 66.6913C33.2872 66.9916 33.7748 66.9916 34.0755 66.6913L61.8925 38.9187C63.5319 37.2826 64.8324 35.3401 65.7197 33.2021C66.607 31.0641 67.0637 28.7725 67.0637 26.4582C67.0637 24.144 66.607 21.8524 65.7197 19.7144C64.8324 17.5764 63.5319 15.6339 61.8925 13.9978C60.2538 12.361 58.3082 11.0625 56.1668 10.1767C55.8255 10.0355 55.4802 9.90519 55.1316 9.78594V10.9164C55.1316 13.1242 53.339 14.9139 51.1277 14.9139C48.9163 14.9139 47.1237 13.1242 47.1237 10.9164V8.9836C45.5923 9.18358 44.0904 9.58387 42.6575 10.1767C40.5161 11.0625 38.5705 12.361 36.9318 13.9978L33.531 17.3932L30.1302 13.9978C27.421 11.2929 23.9217 9.55818 20.1739 9.01757ZM51.4361 23.672C52.46 24.6912 52.4625 26.3462 51.4416 27.3684L32.7091 46.1264C32.2179 46.6182 31.5508 46.8947 30.8552 46.8947C30.1595 46.8947 29.4924 46.6182 29.0012 46.1264L20.6299 37.7437C19.6091 36.7214 19.6115 35.0665 20.6354 34.0472C21.6593 33.028 23.3169 33.0304 24.3378 34.0527L30.8552 40.5789L47.7337 23.6774C48.7546 22.6552 50.4122 22.6527 51.4361 23.672Z" fill="white"/>
<path d="M51.1277 0.614868C49.5967 0.614868 48.3557 1.85395 48.3557 3.38243V10.9163C48.3557 12.4448 49.5967 13.6839 51.1277 13.6839C52.6586 13.6839 53.8996 12.4448 53.8996 10.9163V3.38243C53.8996 1.85395 52.6586 0.614868 51.1277 0.614868Z" fill="white"/>
</svg>
