<svg width="274" height="67" viewBox="0 0 274 67" fill="none" xmlns="http://www.w3.org/2000/svg">
<path d="M13.3979 3.38243C13.3979 1.85395 14.639 0.614868 16.1699 0.614868C17.7008 0.614868 18.9419 1.85395 18.9419 3.38243V10.9163C18.9419 12.4448 17.7008 13.6839 16.1699 13.6839C14.639 13.6839 13.3979 12.4448 13.3979 10.9163V3.38243Z" fill="white"/>
<path fill-rule="evenodd" clip-rule="evenodd" d="M20.1739 9.01757V10.9164C20.1739 13.1242 18.3812 14.9139 16.1699 14.9139C13.9586 14.9139 12.1659 13.1242 12.1659 10.9164V9.70868C9.55262 10.5616 7.14998 12.0205 5.16952 13.9978C1.85953 17.3025 0 21.7847 0 26.4582C0 31.1318 1.85953 35.614 5.16952 38.9187L32.9865 66.6913C33.2872 66.9916 33.7748 66.9916 34.0755 66.6913L61.8925 38.9187C63.5319 37.2826 64.8324 35.3401 65.7197 33.2021C66.607 31.0641 67.0637 28.7725 67.0637 26.4582C67.0637 24.144 66.607 21.8524 65.7197 19.7144C64.8324 17.5764 63.5319 15.6339 61.8925 13.9978C60.2538 12.361 58.3082 11.0625 56.1668 10.1767C55.8255 10.0355 55.4802 9.90519 55.1316 9.78594V10.9164C55.1316 13.1242 53.339 14.9139 51.1277 14.9139C48.9163 14.9139 47.1237 13.1242 47.1237 10.9164V8.9836C45.5923 9.18358 44.0904 9.58387 42.6575 10.1767C40.5161 11.0625 38.5705 12.361 36.9318 13.9978L33.531 17.3932L30.1302 13.9978C27.421 11.2929 23.9217 9.55818 20.1739 9.01757ZM51.4361 23.672C52.46 24.6912 52.4625 26.3462 51.4416 27.3684L32.7091 46.1264C32.2179 46.6182 31.5508 46.8947 30.8552 46.8947C30.1595 46.8947 29.4924 46.6182 29.0012 46.1264L20.6299 37.7437C19.6091 36.7214 19.6115 35.0665 20.6354 34.0472C21.6593 33.028 23.3169 33.0304 24.3378 34.0527L30.8552 40.5789L47.7337 23.6774C48.7546 22.6552 50.4122 22.6527 51.4361 23.672Z" fill="white"/>
<path d="M51.1277 0.614868C49.5967 0.614868 48.3557 1.85395 48.3557 3.38243V10.9163C48.3557 12.4448 49.5967 13.6839 51.1277 13.6839C52.6586 13.6839 53.8996 12.4448 53.8996 10.9163V3.38243C53.8996 1.85395 52.6586 0.614868 51.1277 0.614868Z" fill="white"/>
<path d="M75.3356 42.1418L81.9772 23.0705H85.9782L92.6998 42.1418H88.6722L87.3919 38.0874H80.5102L79.2566 42.1418H75.3356ZM83.1242 29.6321L81.4171 35.1267H86.4583L84.7512 29.6321L83.9777 26.698H83.9244C83.6043 27.9783 83.3376 28.9564 83.1242 29.6321Z" fill="white"/>
<path d="M99.5187 46.8095C97.6694 46.8095 96.1846 46.4361 95.0643 45.6893C93.9618 44.9424 93.3128 43.8933 93.1172 42.5418H96.7181C97.0737 43.5554 97.9895 44.0622 99.4654 44.0622C101.493 44.0622 102.506 43.1109 102.506 41.2082V39.7145H102.426C101.484 40.7814 100.292 41.3149 98.8519 41.3149C97.2337 41.3149 95.8201 40.7192 94.6109 39.5278C93.4195 38.3364 92.8238 36.7538 92.8238 34.78C92.8238 32.7528 93.375 31.1347 94.4775 29.9255C95.58 28.6985 97.0026 28.085 98.7452 28.085C100.399 28.085 101.661 28.6896 102.533 29.8988H102.586V28.4585H106.08V41.1015C106.08 42.8797 105.538 44.2667 104.453 45.2625C103.351 46.2939 101.706 46.8095 99.5187 46.8095ZM99.4654 38.4075C100.55 38.4075 101.359 38.0608 101.893 37.3673C102.426 36.6738 102.693 35.7847 102.693 34.7C102.693 33.633 102.408 32.7528 101.839 32.0593C101.288 31.348 100.488 30.9924 99.4387 30.9924C98.514 30.9924 97.7672 31.3303 97.1982 32.006C96.6469 32.6817 96.3713 33.5886 96.3713 34.7266C96.3713 35.8825 96.6469 36.7894 97.1982 37.4473C97.7672 38.0874 98.5229 38.4075 99.4654 38.4075Z" fill="white"/>
<path d="M114.844 42.5418C112.639 42.5418 110.906 41.8661 109.643 40.5147C108.381 39.1455 107.749 37.4028 107.749 35.2868C107.749 33.2418 108.381 31.5348 109.643 30.1655C110.906 28.7785 112.524 28.085 114.498 28.085C116.649 28.085 118.312 28.8319 119.485 30.3256C120.659 31.8193 121.246 33.8198 121.246 36.327H111.323C111.466 37.4117 111.83 38.2564 112.417 38.861C113.004 39.4478 113.804 39.7412 114.818 39.7412C116.151 39.7412 117.031 39.181 117.458 38.0608H121.032C120.766 39.3411 120.09 40.408 119.005 41.2615C117.921 42.1151 116.534 42.5418 114.844 42.5418ZM114.551 30.8857C112.79 30.8857 111.732 31.8637 111.377 33.8198H117.458C117.405 32.9484 117.111 32.246 116.578 31.7126C116.045 31.1613 115.369 30.8857 114.551 30.8857Z" fill="white"/>
<path d="M126.472 28.4585V30.3256H126.552C127.495 28.8319 128.846 28.085 130.607 28.085C132.011 28.085 133.149 28.5652 134.021 29.5254C134.892 30.4678 135.328 31.6948 135.328 33.2063V42.1418H131.7V33.7397C131.7 32.9929 131.487 32.3883 131.06 31.926C130.651 31.4636 130.073 31.2325 129.326 31.2325C128.526 31.2325 127.859 31.5259 127.326 32.1127C126.81 32.6995 126.552 33.4552 126.552 34.3799V42.1418H122.925V28.4585H126.472Z" fill="white"/>
<path d="M142.685 42.5418C140.96 42.5418 139.564 41.8928 138.497 40.5947C137.43 39.2788 136.897 37.5184 136.897 35.3134C136.897 33.1796 137.439 31.4458 138.524 30.1122C139.626 28.7608 141.031 28.085 142.738 28.085C144.445 28.085 145.735 28.7608 146.606 30.1122H146.686V23.0705H150.313V42.1418H146.819V40.3547H146.766C145.877 41.8128 144.516 42.5418 142.685 42.5418ZM143.485 39.5011C144.552 39.5011 145.361 39.1366 145.912 38.4075C146.481 37.6785 146.766 36.6738 146.766 35.3935C146.766 32.4772 145.708 31.0191 143.592 31.0191C142.614 31.0191 141.867 31.4103 141.351 32.1927C140.836 32.9751 140.578 34.0154 140.578 35.3134C140.578 36.6471 140.827 37.6785 141.325 38.4075C141.84 39.1366 142.56 39.5011 143.485 39.5011Z" fill="white"/>
<path d="M161.287 42.1418C161.109 41.9106 160.967 41.4038 160.86 40.6214H160.807C160.416 41.2082 159.918 41.6616 159.313 41.9817C158.708 42.3018 157.864 42.4618 156.779 42.4618C155.339 42.4618 154.183 42.0973 153.312 41.3682C152.44 40.6392 152.005 39.6078 152.005 38.2742C152.005 36.8872 152.485 35.8736 153.445 35.2334C154.405 34.5755 155.757 34.122 157.499 33.8731C158.78 33.6953 159.651 33.5175 160.113 33.3396C160.576 33.144 160.807 32.8062 160.807 32.3261C160.807 31.8282 160.611 31.437 160.22 31.1524C159.829 30.8502 159.26 30.699 158.513 30.699C156.859 30.699 155.979 31.3392 155.872 32.6195H152.645C152.698 31.3214 153.223 30.2456 154.219 29.392C155.214 28.5385 156.655 28.1117 158.54 28.1117C162.38 28.1117 164.301 29.7921 164.301 33.1529V40.1146C164.301 41.146 164.461 41.7772 164.781 42.0084V42.1418H161.287ZM157.659 39.9279C158.655 39.9279 159.438 39.67 160.007 39.1544C160.593 38.6387 160.887 38.0252 160.887 37.3139V35.2601C160.496 35.4913 159.651 35.758 158.353 36.0603C157.321 36.2915 156.592 36.5582 156.166 36.8605C155.739 37.145 155.525 37.5895 155.525 38.1941C155.525 39.35 156.237 39.9279 157.659 39.9279Z" fill="white"/>
<path d="M179.729 42.5418C177.044 42.5418 174.839 41.6172 173.115 39.7678C171.407 37.9007 170.554 35.5357 170.554 32.6728C170.554 29.7921 171.39 27.4093 173.061 25.5244C174.733 23.6395 176.947 22.6971 179.703 22.6971C181.979 22.6971 183.802 23.3017 185.171 24.5109C186.558 25.7022 187.358 27.2404 187.571 29.1253H183.73C183.553 28.1473 183.108 27.3738 182.397 26.8047C181.703 26.2357 180.805 25.9512 179.703 25.9512C178.013 25.9512 176.724 26.5736 175.835 27.8183C174.946 29.0631 174.502 30.6812 174.502 32.6728C174.502 34.6466 174.973 36.2559 175.915 37.5006C176.875 38.7454 178.147 39.3678 179.729 39.3678C180.85 39.3678 181.783 39.0655 182.53 38.4609C183.277 37.8385 183.713 37.0205 183.837 36.0069H187.625C187.518 37.8029 186.816 39.3055 185.517 40.5147C184.077 41.8661 182.148 42.5418 179.729 42.5418Z" fill="white"/>
<path d="M201.081 40.488C199.747 41.8572 198.031 42.5418 195.933 42.5418C193.834 42.5418 192.118 41.8572 190.785 40.488C189.451 39.101 188.784 37.3762 188.784 35.3134C188.784 33.2507 189.451 31.5348 190.785 30.1655C192.118 28.7785 193.834 28.085 195.933 28.085C198.031 28.085 199.747 28.7785 201.081 30.1655C202.414 31.5348 203.081 33.2507 203.081 35.3134C203.081 37.3762 202.414 39.101 201.081 40.488ZM195.933 39.7678C197.017 39.7678 197.862 39.3678 198.467 38.5676C199.089 37.7496 199.4 36.6649 199.4 35.3134C199.4 33.962 199.089 32.8773 198.467 32.0593C197.862 31.2414 197.017 30.8324 195.933 30.8324C194.83 30.8324 193.977 31.2414 193.372 32.0593C192.767 32.8595 192.465 33.9442 192.465 35.3134C192.465 36.6649 192.767 37.7496 193.372 38.5676C193.977 39.3678 194.83 39.7678 195.933 39.7678Z" fill="white"/>
<path d="M208.315 28.4585V30.3256H208.395C209.337 28.8319 210.689 28.085 212.449 28.085C213.854 28.085 214.992 28.5652 215.863 29.5254C216.735 30.4678 217.17 31.6948 217.17 33.2063V42.1418H213.543V33.7397C213.543 32.9929 213.329 32.3883 212.903 31.926C212.494 31.4636 211.916 31.2325 211.169 31.2325C210.369 31.2325 209.702 31.5259 209.168 32.1127C208.653 32.6995 208.395 33.4552 208.395 34.3799V42.1418H204.767V28.4585H208.315Z" fill="white"/>
<path d="M224.954 42.5418C222.998 42.5418 221.469 42.1151 220.366 41.2615C219.264 40.3902 218.659 39.2077 218.553 37.714H221.914C222.145 39.2255 223.14 39.9812 224.901 39.9812C225.701 39.9812 226.315 39.839 226.741 39.5545C227.186 39.27 227.408 38.8876 227.408 38.4075C227.408 38.2297 227.373 38.0697 227.301 37.9274C227.248 37.7851 227.141 37.6607 226.981 37.554C226.839 37.4295 226.706 37.3317 226.581 37.2606C226.475 37.1895 226.279 37.1183 225.994 37.0472C225.71 36.9761 225.488 36.9227 225.328 36.8872C225.185 36.8516 224.928 36.8071 224.554 36.7538C224.199 36.6827 223.95 36.6293 223.807 36.5938C223.06 36.4515 222.447 36.3092 221.967 36.167C221.505 36.0069 221.016 35.7847 220.5 35.5002C219.984 35.1979 219.593 34.7978 219.326 34.2999C219.077 33.7842 218.953 33.1707 218.953 32.4594C218.953 31.0369 219.468 29.9522 220.5 29.2053C221.549 28.4585 222.892 28.085 224.527 28.085C226.288 28.085 227.666 28.494 228.662 29.312C229.675 30.1122 230.253 31.2147 230.396 32.6195H227.115C226.973 31.2858 226.092 30.619 224.474 30.619C223.745 30.619 223.167 30.7523 222.74 31.0191C222.331 31.2858 222.127 31.6592 222.127 32.1393C222.127 32.2994 222.154 32.4505 222.207 32.5928C222.278 32.7173 222.385 32.8328 222.527 32.9395C222.687 33.0285 222.838 33.1085 222.98 33.1796C223.123 33.2329 223.327 33.2952 223.594 33.3663C223.861 33.4197 224.092 33.473 224.287 33.5263C224.483 33.5619 224.75 33.6153 225.088 33.6864C225.425 33.7397 225.692 33.7842 225.888 33.8198C226.457 33.9442 226.919 34.0598 227.275 34.1665C227.648 34.2554 228.075 34.4155 228.555 34.6466C229.035 34.86 229.409 35.1089 229.675 35.3935C229.96 35.6602 230.2 36.0336 230.396 36.5137C230.609 36.9761 230.716 37.5184 230.716 38.1408C230.716 39.4922 230.182 40.568 229.115 41.3682C228.066 42.1506 226.679 42.5418 224.954 42.5418Z" fill="white"/>
<path d="M244.488 42.1418H240.994V40.5414H240.914C240.416 41.2171 239.865 41.715 239.26 42.0351C238.674 42.3551 237.918 42.5152 236.993 42.5152C235.499 42.5152 234.335 42.0706 233.499 41.1815C232.663 40.2924 232.245 39.0921 232.245 37.5807V28.4585H235.846V36.9672C235.846 38.6209 236.602 39.4478 238.113 39.4478C238.949 39.4478 239.616 39.1633 240.114 38.5942C240.612 38.0252 240.861 37.2784 240.861 36.3537V28.4585H244.488V42.1418Z" fill="white"/>
<path d="M246.888 42.1418V23.0705H250.516V42.1418H246.888Z" fill="white"/>
<path d="M252.104 30.859V28.4585H253.997V24.1908H257.545V28.4585H259.892V30.859H257.545V38.1141C257.545 39.021 257.998 39.4744 258.905 39.4744L259.972 39.4478V42.1151C259.421 42.1506 258.665 42.1684 257.705 42.1684C256.656 42.1684 255.776 41.9195 255.064 41.4216C254.353 40.9059 253.997 40.0612 253.997 38.8876V30.859H252.104Z" fill="white"/>
<path d="M270.506 42.1418C270.328 41.9106 270.186 41.4038 270.079 40.6214H270.026C269.634 41.2082 269.137 41.6616 268.532 41.9817C267.927 42.3018 267.083 42.4618 265.998 42.4618C264.558 42.4618 263.402 42.0973 262.531 41.3682C261.659 40.6392 261.224 39.6078 261.224 38.2742C261.224 36.8872 261.704 35.8736 262.664 35.2334C263.624 34.5755 264.976 34.122 266.718 33.8731C267.999 33.6953 268.87 33.5175 269.332 33.3396C269.795 33.144 270.026 32.8062 270.026 32.3261C270.026 31.8282 269.83 31.437 269.439 31.1524C269.048 30.8502 268.479 30.699 267.732 30.699C266.078 30.699 265.198 31.3392 265.091 32.6195H261.864C261.917 31.3214 262.442 30.2456 263.437 29.392C264.433 28.5385 265.874 28.1117 267.758 28.1117C271.599 28.1117 273.52 29.7921 273.52 33.1529V40.1146C273.52 41.146 273.68 41.7772 274 42.0084V42.1418H270.506ZM266.878 39.9279C267.874 39.9279 268.656 39.67 269.225 39.1544C269.812 38.6387 270.106 38.0252 270.106 37.3139V35.2601C269.714 35.4913 268.87 35.758 267.572 36.0603C266.54 36.2915 265.811 36.5582 265.385 36.8605C264.958 37.145 264.744 37.5895 264.744 38.1941C264.744 39.35 265.456 39.9279 266.878 39.9279Z" fill="white"/>
</svg>
